<svg xmlns="http://www.w3.org/2000/svg" viewBox="0 0 1280 720" width="1280" height="720">
  <defs>
    <linearGradient id="g2" x1="0" y1="0" x2="0" y2="1">
      <stop offset="0%" stop-color="#1f3550"/>
      <stop offset="100%" stop-color="#0c1828"/>
    </linearGradient>
  </defs>
  <rect width="1280" height="720" fill="url(#g2)"/>
  <!-- 屋檐 -->
  <polygon points="0,180 1280,180 1280,260 1180,220 100,220 0,260" fill="#3a2a1c" opacity="0.85"/>
  <polygon points="100,220 1180,220 1100,280 180,280" fill="#5a4030" opacity="0.7"/>
  <!-- 红灯笼 -->
  <g>
    <ellipse cx="320" cy="350" rx="35" ry="48" fill="#a02030"/>
    <ellipse cx="960" cy="350" rx="35" ry="48" fill="#a02030"/>
    <line x1="320" y1="280" x2="320" y2="302" stroke="#3a2a1c" stroke-width="2"/>
    <line x1="960" y1="280" x2="960" y2="302" stroke="#3a2a1c" stroke-width="2"/>
  </g>
  <!-- 人物剪影 -->
  <path d="M 600 480 Q 580 480 580 510 L 580 600 Q 580 640 620 640 L 660 640 Q 700 640 700 600 L 700 510 Q 700 480 680 480 Z" fill="#0c1828" opacity="0.9"/>
  <circle cx="640" cy="455" r="28" fill="#0c1828"/>
  <text x="60" y="660" fill="#a08060" font-family="serif" font-size="28" opacity="0.7">古风庭院 · 占位图</text>
  <text x="60" y="690" fill="#604838" font-family="serif" font-size="18">请由用户替换为真实暂停帧</text>
</svg>
